<svg xmlns="http://www.w3.org/2000/svg" xmlns:xlink="http://www.w3.org/1999/xlink" viewBox="0 0 266.1 312.4" xml:space="preserve"><ellipse fill="#A3A3A3" cx="126.3" cy="310.4" rx="60.9" ry="2"/><path fill="#1C1C1C" d="M211.9 157.3A84.3 84.3 0 0 0 131 98.5 84.7 84.7 0 0 0 70.1 124a82.7 82.7 0 0 0-23.8 58.2c0 46.2 38 83.8 84.8 83.8a85 85 0 0 0 58.6-23.2 82.7 82.7 0 0 0 22.2-85.5z"/><path fill="#FFF" d="M93.2 166.4c-2.3 0-4.1 2.1-4.1 4.9 0 2.7 1.8 4.9 4.1 4.9s4.1-2.1 4.1-4.9c0-2.8-1.8-4.9-4.1-4.9zm-12-2.1-.1-1v-1.2l.3-1.6.6-1.8c.3-.6.6-1.3 1.1-1.9a8.5 8.5 0 0 1 2.6-2.4l1.1-.6 1.2-.4 1.2-.3 1.2-.1h.6l.5.1 1.1.2 1 .4 1.7 1c.5.3.8.8 1.2 1.1l.8 1 .5.9c.1.1 0 .3-.1.4-.1.1-.3 0-.4 0l-.7-.7-.8-.7-1.2-.7c-.4-.3-1-.4-1.5-.6a5 5 0 0 0-1.7-.3h-.9c.1 0 0 0 0 0h-.1l-.9.1-1.8.6-1.6 1-.7.6-.6.7-1 1.5-.7 1.5-.5 1.3-.3 1.1-.2 1c0 .2-.2.3-.4.2-.4-.1-.5-.2-.5-.4zm99.8.2-.2-1-.3-1.1a7 7 0 0 0-.5-1.3l-.7-1.5-1-1.5-.6-.7-.7-.6-1.6-1-1.8-.6-.9-.1h-.1s-.1 0 0 0h-.9l-1.7.3-1.5.6-1.2.7-.8.7-.7.7c-.1.1-.3.1-.4 0-.1-.1-.1-.2 0-.4l.5-.9.8-1 1.2-1.1a7 7 0 0 1 1.7-1l1-.4 1.1-.2.5-.1h.6l1.2.1 1.2.3 1.2.4 1.1.6 1 .7c.6.5 1.2 1.1 1.6 1.7a11.8 11.8 0 0 1 1.7 3.7l.3 1.6v1.2l-.1 1c0 .2-.2.3-.3.3-.6.1-.7 0-.7-.1zm-11.4 3.3c-2.3 0-4.1 2.1-4.1 4.9 0 2.7 1.8 4.9 4.1 4.9s4.1-2.1 4.1-4.9c0-2.7-1.8-4.9-4.1-4.9z"/><path fill="#1C1C1C" d="m119.5 306.8-.2-.5c-6-12.8.5-52.1.5-52.5l-2.7-.4c-.2 1.5-5.1 31.8-2 48.3.5 1.7-1.9 1.8-1.9 1.8-3.4-1-8-1.9-13-2.4-5.9-.6-11.1 1-14.3 2.3-2.8 1.1-4.6 2.7-4.6 3.6 0 1.9 8.5 3.5 19.1 3.5s19.1-1.5 19.1-3.5v-.2zm25.7 0 .2-.5c6-12.8-.5-52.1-.5-52.5l2.7-.4c.2 1.5 5.1 31.8 2 48.3-.5 1.7 1.9 1.8 1.9 1.8 3.4-1 8-1.9 13-2.4 5.9-.6 11.1 1 14.3 2.3 2.8 1.1 4.6 2.7 4.6 3.6 0 1.9-8.5 3.5-19.1 3.5s-19.1-1.5-19.1-3.5v-.2z"/><linearGradient id="a" gradientUnits="userSpaceOnUse" x1="-10878.2" y1="91646.1" x2="-9718.2" y2="91646.1" gradientTransform="matrix(-.05586 -.04019 -.03793 .05284 3024.387 -5220.123)"><stop offset="0" stop-color="#9db926"/><stop offset="1" stop-color="#b0cc3c"/></linearGradient><path fill="url(#a)" d="M95.9 54.9c5.3 5.9 11.2 11.4 17.6 16.4l4.8 3.6c5.5 4.4 12.4 7.1 18.5 10.9-.1-20.4 4.4-40.6 8.1-60.7 1-5.7 0-13-5-18a20.4 20.4 0 0 0-5.1-4.2c-5.7-3.3-13.2-3.7-22.6-1.1-14.5 3.7-23.2 10.3-26 19.5a25 25 0 0 0-.4 12.5 56 56 0 0 0 5.8 14.7 65 65 0 0 0 4.3 6.4z"/><path fill="#332E2E" d="M113.5 41.7a12 12 0 0 0-2.9 5.4c-.4 1.8-.3 3.5.2 5.3s1.4 3.4 2.5 4.9c4.4 5.2 10.4 8 15.6 11.9.5-9.4 7.6-31.8-9.4-30.3-2.5.7-4.5 1.6-6 2.8z"/><linearGradient id="b" gradientUnits="userSpaceOnUse" x1="-7780.1" y1="70229.7" x2="-6728.9" y2="70229.7" gradientTransform="matrix(-.0005 -.0688 -.06504 .00054 4748.996 -483.065)"><stop offset="0" stop-color="#9db926"/><stop offset="1" stop-color="#b0cc3c"/></linearGradient><path fill="url(#b)" d="M156.4 43.5a119.2 119.2 0 0 0-2.6 27.1c-.3 6.4 1.4 12.9 1.9 19.4 14.9-11 32.1-18.5 48.7-26.5 4.7-2.3 9.5-7 10.5-13.3.5-2 .6-4 .4-6-.6-5.9-4.4-11.6-11.2-17.1-10.6-8.6-20.1-11.4-28.3-8.5a22.6 22.6 0 0 0-9.3 6.4 48 48 0 0 0-7.6 12.1c-1 2-1.8 4.1-2.5 6.4z"/><path fill="#332E2E" d="M175.4 49.3c-2.2-.2-4 .1-5.5.8a9.1 9.1 0 0 0-3.7 3c-1 1.3-1.7 2.8-2.2 4.5-1.4 6-.3 11.9-.4 17.8 7.1-4.6 27.3-11.5 17.2-23.1a16.4 16.4 0 0 0-5.4-3z"/><linearGradient id="c" gradientUnits="userSpaceOnUse" x1="10282.9" y1="60278.7" x2="11272.8" y2="60278.7" gradientTransform="matrix(.05657 -.03918 -.03709 -.05344 1840.218 3743.796)"><stop offset="0" stop-color="#9db926"/><stop offset="1" stop-color="#b0cc3c"/></linearGradient><path fill="url(#c)" d="M207.2 73.2a116.7 116.7 0 0 0-22.5 12.4c-5.1 3.2-9.3 7.9-14.1 11.8 16.5 5.7 31.4 15.2 46.5 23.8a17.3 17.3 0 0 0 15.9 1.1c1.8-.7 3.4-1.7 4.9-2.9 4.3-3.6 6.7-9.6 7.4-17.8 1.1-12.8-1.8-21.7-8.4-26.6-2.7-2-6.1-3.3-10-3.9a49.5 49.5 0 0 0-19.7 2.1z"/><path fill="#332E2E" d="M212.8 91.1c-1-1.8-2.2-3.1-3.5-3.9s-2.8-1.3-4.3-1.3c-1.5-.1-3.1.2-4.7.6-5.4 2-9.4 6-14.1 9.1 7.4 3.1 23.4 15.2 27.1 1.1.1-2.2 0-4-.5-5.6zm-75.7 27c4.4 8.3-14.6 7.9-28.4 15.3-13.8 7.3-27.9 23.1-32.4 14.7-4.4-8.3 9.1-23.6 22.9-30.9 13.8-7.3 33.4-7.4 37.9.9z"/><circle fill="#332E2E" cx="65.4" cy="157.3" r="4.8"/><g fill="#1C1C1C"><path d="m52.8 197.7-1.7-2.3-1.9-2.7-2.3-3.5-2.6-4.3-2.8-4.9c-1.8-3.5-3.1-7.6-5.1-11.3-1-1.8-2.1-3.6-3.3-5.2-1.2-1.7-2.5-3.2-3.7-4.7a69.6 69.6 0 0 1-3.6-4.4l-3-4-2.5-3.4-1.9-2.7-1.6-2.4c-.9-1.3-.6-3 .7-3.9s3-.6 3.9.7l1.6 2.4 1.8 2.7 2.3 3.6 2.7 4.2a107 107 0 0 1 2.8 4.9 71.1 71.1 0 0 0 6.8 10.2c2.7 3.2 6.1 5.9 8.7 8.8l3.6 4.3 3.1 4 2.5 3.5 1.8 2.7a39 39 0 0 1 1.5 2.4c1.3 2.3.5 5.3-1.8 6.6a5 5 0 0 1-6-1.3z"/><path d="M22.6 140.5s-3.4-8.4-1.8-13.7c1.6-5.3-3.4-10.6-5.5-5.8-2.2 4.8 2.9 6.6 1.2 9.3-1.7 2.7-8.4-6.7-10-14.5-1.6-7.9-8.5-1.5-5.9 2.8 3.6 6.3 7.7 8.1 7.6 10.6-.1 2-8.7-.9-7.7 5 .9 5.9 4 8 5.8 6 1.7-2 .1-4.6-1.2-5.4-1.4-.8 5.6-3.1 6.8 3.3 1.1 6.4 5.8 5.3 6.6 5.7l4.1-3.3z"/></g><g fill="#1C1C1C"><path d="m205.4 192.2 1.5-2.4a63 63 0 0 1 1.8-2.7l2.5-3.5 3.1-4 3.6-4.3c2.6-2.9 6-5.6 8.7-8.8a43 43 0 0 0 3.7-5l3.1-5.2 2.8-4.9 2.7-4.2 2.3-3.6 1.8-2.7 1.6-2.4a2.8 2.8 0 0 1 3.9-.7c1.3.9 1.6 2.6.7 3.9l-1.6 2.4-1.9 2.7a138.9 138.9 0 0 1-9.1 11.8l-3.7 4.7a56.9 56.9 0 0 0-3.3 5.2c-2 3.7-3.3 7.8-5.1 11.3-.9 1.8-1.9 3.4-2.8 4.9l-2.6 4.3-2.3 3.5-1.9 2.7-1.7 2.3a4.8 4.8 0 0 1-6.8.6c-1.7-1.3-2.1-3.9-1-5.9z"/><path d="M243.4 140.5s3.4-8.4 1.8-13.7c-1.6-5.3 3.4-10.6 5.5-5.8 2.2 4.8-2.9 6.6-1.2 9.3 1.7 2.7 8.4-6.7 10-14.5 1.6-7.9 8.5-1.5 5.9 2.8-3.6 6.3-7.7 8.1-7.6 10.6.1 2 8.7-.9 7.7 5-.9 5.9-4 8-5.8 6-1.7-2-.1-4.6 1.2-5.4 1.4-.8-5.6-3.1-6.8 3.3-1.1 6.4-5.8 5.3-6.6 5.7l-4.1-3.3z"/></g><path fill="#332E2E" d="M74.3 213.1c-9.8-26.2 24.3 1.4 52.5 1.6 28.1.1 64.2-25.7 57.3.8-5.7 21.6-29 32.8-52.9 34.3a57.5 57.5 0 0 1-56.9-36.7z"/><path fill="#181818" d="m73.4 198.2-.4.1-1 .3-1.2.6-1 1-.1.1c0-.1 0 0 0 0l-.1.2-.1.3-.2.7-.1 1.4v1.5c0 .2-.1.3-.3.3l-.3-.2-.6-1.5a8 8 0 0 1-.2-1.7l.1-1 .2-.6.1-.2v-.2l.1-.1c.4-.6 1-1.1 1.6-1.4a4 4 0 0 1 1.7-.5c1-.1 1.7.2 1.7.2.2.1.3.3.2.5.1.1 0 .2-.1.2zm114.6 9.9.1-.4.2-1c.1-.9 0-1.9-.5-2.8l-.1-.1-.1-.2-.2-.2-.6-.5-1.3-.7a45 45 0 0 0-1.4-.6c-.2-.1-.2-.3-.2-.4l.3-.2s.7-.1 1.6.1c.5.1 1.1.2 1.7.5l.9.6.4.4.2.2.2.3.5 1 .2 1.1a4.8 4.8 0 0 1-1.2 3.3h-.5l-.2-.4zM129.7 220c2.9 2.8 7.6 10.9-1.1 12.2-8.7 1.3-1.2-7.4-2.1-9.7-7.4-18.2-33.6 14.6-33.6 15.6l.7.5a55.6 55.6 0 0 0 34 11.3c14.2.3 26.8-4.1 35.2-8.8-1.7-20.9-36-23.8-33.1-21.1z"/><path fill="#ED5B70" d="M106.1 245.7s9.3-11.2 18.5-9.1c4.3 1 3.9 1.8 6 2 3.1.2 4.1-2.2 8.6-1.5 4.7.7 10.4 8.3 11 9.3 0 0-6.9 2.3-15.6 3-2.2.2-4.4.4-6.5.4a56 56 0 0 1-13.9-1.6c-5.1-1.1-8.1-2.5-8.1-2.5z"/><path fill="#ED8090" d="M124.1 238.6c0-.8-1.3-1.5-3-1.6-1.7 0-4.1 1.2-4.1 2.1 0 .8 2.3 1.2 3.9 1.3s3.2-1 3.2-1.8zm14.8.5c0-.6-.6-1-1.8-1-1.2 0-2.5.7-2.5 1.3 0 .6.9 1.1 2.2 1.1 1.1 0 2-.8 2.1-1.4z"/><defs><path id="d" d="M74.3 213.1c-9.8-26.2 24.3 1.4 52.5 1.6 28.1.1 64.2-25.7 57.3.8-5.7 21.6-29 32.8-52.9 34.3a57.5 57.5 0 0 1-56.9-36.7z"/></defs><clipPath id="e"><use xlink:href="#d" overflow="visible"/></clipPath><path clip-path="url(#e)" fill="#FFF" d="M98.6 247.7c.6-2.3-.9-12.1-3.7-11.5-1.6.3-3.7 2.6-5.3 4.7 1.7 2.7 4.9 4.8 9 6.8zm45.9 11.7.1.1c5.4-3.3 10.7-6 15.3-8.5-2.3-3.7-6.7-10-9.9-10.9-4.6-1.3-7.1 17.8-5.5 19.3zm29-20c-2.7-1.4-6.6-3.1-9.1-2.8-4.1.4-1.1 10.2.1 11.7a33 33 0 0 0 9-8.9zm-34.9 18.8c-.8-3.6-5.4-13.2-9.1-15.2-3.9-2.1-10.3 12.4-9.8 15.5a98.7 98.7 0 0 1 18.9-.3zm-38.7-7c4.4 2.7 9.9 5.4 15.6 8.7 1.2-2.5-.2-18.3-4.1-18-3.5.3-9.9 7.5-11.5 9.3z"/><defs><path id="f" d="M74.3 213.1c-9.8-26.2 24.3 1.4 52.5 1.6 28.1.1 64.2-25.7 57.3.8-5.7 21.6-29 32.8-52.9 34.3a57.5 57.5 0 0 1-56.9-36.7z"/></defs><clipPath id="g"><use xlink:href="#f" overflow="visible"/></clipPath><path clip-path="url(#g)" fill="#FFF" d="M116.2 208.3a34.2 34.2 0 0 0 10.6 16.2c4.1 2.3 11-12.9 10.4-16a85.6 85.6 0 0 0-21-.2z"/><path clip-path="url(#g)" fill="#FFF" d="M136.5 207.7c.7 2.6 11.9 13.2 14.6 10.5 2.5-2.6 2.4-12.3 2.4-14.4a52 52 0 0 0-17 3.9zm19.3-2.6c1.7 2.3 9.1 7.5 10.6 5.2 1.4-2 .5-7.7 0-10.2-3.5.9-7.1 2.5-10.6 5zm-69.7-5.4c.1 2.8.5 8.5 2.3 10.9 2.2 3 8.3-3.3 9.6-5.6-4-2.7-8-4.4-11.9-5.3zm16.8 19.3c2.8 3.1 13.1-8.3 14.6-12-6-2.9-11.7-4.6-16.8-5.2-.1 1.1-.8 13.9 2.2 17.2z"/></svg>